<svg xmlns="http://www.w3.org/2000/svg" width="1280" height="560" viewBox="0 0 1280 560" role="img" aria-labelledby="title desc">
<title id="title">LumynaX Infused Phi-3 Mini 4K Instruct GGUF professional LumynaX release overview</title>
<desc id="desc">Professional release overview for AbteeXAILab/lumynax-infused-phi3-mini-4k-gguf showing provenance, LumynaX infusion layer, package artifact, and runtime path.</desc>
<defs>
<filter id="shadow" x="-12%" y="-12%" width="124%" height="124%"><feDropShadow dx="0" dy="10" stdDeviation="12" flood-color="#0a0a0b" flood-opacity="0.08"/></filter>
<marker id="arrowhead" markerWidth="12" markerHeight="8" refX="10" refY="4" orient="auto"><polygon points="0 0, 12 4, 0 8" fill="#e08a2c"/></marker>
</defs>
<style>
.title{fill:#0a0a0b;font:500 38px Georgia,serif}.sub{fill:#726b62;font:16px Aptos,Segoe UI,Arial}.eyebrow{fill:#9a5416;font:700 13px ui-monospace,Consolas,monospace;letter-spacing:2px}.rule{stroke:#0a0a0b;stroke-opacity:.12}.accent{stroke:#e08a2c;stroke-width:4}.card{fill:#ffffff;stroke:#0a0a0b;stroke-opacity:.12;stroke-width:1.2;filter:url(#shadow)}.num{fill:#ffffff;font:700 17px Aptos,Segoe UI,Arial}.numBg{fill:#0a0a0b}.label{fill:#0a0a0b;font:700 18px Aptos,Segoe UI,Arial}.body{fill:#5f574e;font:14px Aptos,Segoe UI,Arial}.chip{fill:#f6f0e8;stroke:#0a0a0b;stroke-opacity:.12}.chiptext{fill:#0a0a0b;font:700 12px ui-monospace,Consolas,monospace;letter-spacing:.7px}.line{stroke:#e08a2c;stroke-width:3;marker-end:url(#arrowhead)}
</style>
<rect width="1280" height="560" rx="28" fill="#fffefa"/>
<line class="accent" x1="852" y1="34" x2="1228" y2="34"/>
<line class="rule" x1="52" y1="160" x2="1228" y2="160"/>
<text class="eyebrow" x="52" y="58">ABTEEX AI LABS - LUMYNAX MODEL INFUSION RELEASE</text>
<text class="title" x="52" y="102">LumynaX Infused Phi-3 Mini 4K Instruct GGUF</text>
<text class="sub" x="52" y="134">AbteeXAILab/lumynax-infused-phi3-mini-4k-gguf</text>
<rect class="card" x="52" y="205" width="270" height="155" rx="18"/>
<circle class="numBg" cx="86" cy="241" r="18"/>
<text class="num" x="80" y="247">1</text>
<text class="label" x="114" y="247">Upstream</text>
<text class="body" x="78" y="287">microsoft/Phi-3-mini-4k-instruct</text>
<line class="line" x1="331" y1="282.5" x2="344" y2="282.5"/>
<rect class="card" x="356" y="205" width="270" height="155" rx="18"/>
<circle class="numBg" cx="390" cy="241" r="18"/>
<text class="num" x="384" y="247">2</text>
<text class="label" x="418" y="247">LumynaX Infusion</text>
<text class="body" x="382" y="287">Identity, runtime scaffold,</text>
<text class="body" x="382" y="308">provenance, checksums</text>
<line class="line" x1="635" y1="282.5" x2="648" y2="282.5"/>
<rect class="card" x="660" y="205" width="270" height="155" rx="18"/>
<circle class="numBg" cx="694" cy="241" r="18"/>
<text class="num" x="688" y="247">3</text>
<text class="label" x="722" y="247">Release Package</text>
<text class="body" x="686" y="287">Phi-3-mini-4k-instruct-q4.gguf</text>
<line class="line" x1="939" y1="282.5" x2="952" y2="282.5"/>
<rect class="card" x="964" y="205" width="270" height="155" rx="18"/>
<circle class="numBg" cx="998" cy="241" r="18"/>
<text class="num" x="992" y="247">4</text>
<text class="label" x="1026" y="247">Runtime</text>
<text class="body" x="990" y="287">llama_cpp</text>
<rect class="chip" x="52" y="420" width="190" height="40" rx="20"/>
<text class="chiptext" x="69" y="445">modalities: text</text>
<rect class="chip" x="258" y="420" width="190" height="40" rx="20"/>
<text class="chiptext" x="275" y="445">license: mit</text>
<rect class="chip" x="464" y="420" width="258" height="40" rx="20"/>
<text class="chiptext" x="481" y="445">state: prebuilt_gguf_release</text>
<rect class="chip" x="738" y="420" width="190" height="40" rx="20"/>
<text class="chiptext" x="755" y="445">audit: pass</text>
<line class="rule" x1="52" y1="496" x2="1228" y2="496"/>
<text class="sub" x="52" y="526">Download the complete repo so README, manifest, checksums, runtime files, and weights stay together.</text>
</svg>
